/* XPM */
static char *_03d5257ff2c461d9fa26680bc718164omfwyzjZDwiThWP3[] = {
/* columns rows colors chars-per-pixel */
"8 8 3 1 ",
"  c None",
". c #A46422",
"X c #EB8931",
/* pixels */
"  XXXX  ",
"  XXXX  ",
"  XXXX  ",
"  .XX.  ",
"   ..   ",
"        ",
"   XX   ",
"   ..   "
};
