/* XPM */
static char *d3307d40902748adfbbeea9b5b5e85d60a2VB6ReqNnmmFLI[] = {
/* columns rows colors chars-per-pixel */
"16 16 14 1 ",
"  c None",
". c #151515",
"X c #172808",
"o c #376D03",
"O c #00604B",
"+ c #823C3D",
"@ c #AE6C37",
"# c #871646",
"$ c #139D08",
"% c #6AB417",
"& c #20B562",
"* c #8CD612",
"= c #A328B3",
"- c #FF82CE",
/* pixels */
"                ",
"                ",
"     .%o--.     ",
"    .%*=---.    ",
"    .%**=--.    ",
"    .%X%%$=.    ",
"    .%%%%X%..   ",
"    .O%XX%O&%.  ",
"   .%&O##O&O%%. ",
"  .%%O&&&&OO%%. ",
"  .%%O&&&&O.%%. ",
"  .%%+&&&&O.    ",
"  .%%o+++@@.    ",
"   ...++.@@.    ",
"     .oo.@@.    ",
"   ......%%..   "
};
