/* XPM */
static char * exit_xpm[] = {
"32 32 21 1",
" 	c #149900",
".	c #048500",
"+	c #18A100",
"@	c #101010",
"#	c #BABABA",
"$	c #EEEEEE",
"%	c #999999",
"&	c #D2D2D2",
"*	c #898989",
"=	c #818181",
"-	c #003000",
";	c #202020",
">	c #404040",
",	c #555555",
"'	c #383838",
")	c #AAAAAA",
"!	c #717171",
"~	c #380000",
"{	c #C6C6C6",
"]	c #656565",
"^	c #E2E2E2",
"   ..+. +. +. + .++. ..+ .+.....",
"   ++. +..+. +.+..+. ++.++      ",
"   .+.+.... +.......+...++.++ + ",
"    .... +.@@  @@..+.+....+..+. ",
"    .+.  +@#$@@%%@..+.+.++..+.  ",
"    +.   @#@@%%@%@.++ @@@..+.+ +",
"+  +.+  @&@@@@@@@%@++@*##@..+.+.",
".+ .+. +@&@@@@@@@=@.@%#%-@.+....",
" .++..+@&$@@@@@@@=@@*%$%@;@.++.+",
" ..+. @&%*&@@@@@%@@@=%$%@@@+..+.",
" . ..@*=#&$&$$%=@>@@%$$*@@@@.+..",
"  ..@%**&&=$&$,@@;>@=%$*@@@@+..+",
"+ ..@=%*#=%$$%,@@>'>'=$=@@@@@...",
".++@)%%#*=%$&%,,@>'';!%*@~@@,@+ ",
" .@%*{*=)***&%],@@>'>,$=@@@@'@++",
"+@**%*=)%***&%=;'@>''>*=>@@@->@.",
".@*%!==%!!*#*%=>@@@>'>>!>@>@@>@.",
"@=**=!!)]#=**)=;@@@;>;,='@@'@@]@",
"@%%]=#*!]*=*%*!;@@@>;;;,>@@>'@@@",
"@====*=>**=%)*,;@@@>@@@'@@@@>'@@",
"@=,=!*>!==]%*%'@@@;>'@@@@@@@>'@@",
"@]==)!',-,]*%*>@@@@>>'@@@@@@@,@@",
"@,*=%>^&;;=%)=,@@@@>>,@@@@@@@]>@",
"@**#!{{''@>**],'@@@'>>,@@@@@@,>@",
"@===!^&'@@;>==>'@@@@>>,'@@@@@@@+",
"@]!=)&''@@@@>>>'@@@@>>>>'@@@@@.+",
"@**##&'@@@@@@@>>>>@''>'>,@@;@@..",
"@**!&'@@@@@@@@@,''~>>'>,>>'@@@  ",
".@!*,'@@@~@@@@@,!,''>>>>>'''@   ",
" @*!'@@@@@@@@@@;,'>@@@@@@@@@+   ",
"  @>@@@@@@@@@@@@>@@@..+.+..+.   ",
"   @@@@@@@@@@@@@@@........+. +  "};
