/* XPM */
static char * grass_xpm[] = {
"32 32 3 1",
" 	c #149900",
".	c #048500",
"+	c #18A100",
"   ..+. +. +. + .++. ..+ .+.....",
"   ++. +..+. +.+..+. ++.++      ",
"   .+.+.... +.......+...++.++ + ",
"    .... +.+.  .+..+.+....+..+. ",
"    .+.  +.. + .. ..+.+.++..+.  ",
"    +.   .++++++ +.++ ..+..+.+ +",
"+  +.+  + .+.++.+. +++.+.+..+.+.",
".+ .+. +. ...+.+.++...+. ..+....",
" .++..+. +..+.+.+++..+.++.+.++.+",
" ..+. + +.........++++++++.+..+.",
" . ..+.+.. .+.+ +...+ ..+.+..+..",
"  ..+.+++  .. . . .+..+..+.++..+",
"+ ....+..++++ .+.. ..+. ........",
".++ ++.....+.+..+ ..+.++.+..+.+ ",
" ..+.. .+.+.+. +........+..+. ++",
"+.+........++ +.++++ . +.++.++..",
".....++++.++. + ..+.+.+.........",
".+ .+...+..++.. .++++...+.+..+ .",
" .++..+.. +.. .+.+.+. ++....++  ",
"+.+.+.++.+++++.. .+. +..+.++..++",
".+.++ .+..+.+.++ ++.+.  ..+. ...",
" .+.+++.+ ++.+.+...+.++ +... +.+",
"+ ..+...+...+  .++..+..+.. .+...",
". .+..+..+...+ ...+.+.+.+.....+ ",
"+ .. .+.+.+..+.........+.++.+ .+",
".++ +...+...+......+..+. +.+. .+",
" ..+. .+...+.   .+..+.. +.+..+..",
"+.+. +...+..  .  .++.+.+......  ",
"........ .+. +. ..+..           ",
"   ..+ .+..++.+ +..+...+.       ",
"    +.+..+.+.+. .+....+.+..+.   ",
"    .+. +...+.   .........+. +  "};
