/* XPM */
static char * mountain_xpm[] = {
"32 32 21 1",
" 	c #149900",
".	c #048500",
"+	c #18A100",
"@	c #101010",
"#	c #999999",
"$	c #BABABA",
"%	c #404040",
"&	c #EEEEEE",
"*	c #D2D2D2",
"=	c #555555",
"-	c #383838",
";	c #656565",
">	c #898989",
",	c #003000",
"'	c #202020",
")	c #818181",
"!	c #AAAAAA",
"~	c #717171",
"{	c #380000",
"]	c #C6C6C6",
"^	c #E2E2E2",
"   ..+. +. +@@@ .++. ..+ .+.....",
"    +. +..+@#$%@..+. ++.++      ",
"   .+.+....@$&%%@...+...++.++ + ",
"    .... +@*&&=%@..+.+....+..+. ",
"    .+.  +@$&&=--@..+.+.++..+.  ",
"    +.   @$&&&;@@@.++ @@@..+.+ +",
"+  +.+  @**&&*;@@@@++@>$$@..+.+.",
".+ .+. +@*&&&*;@@@@.@#$#,@.+....",
" .++..+@*&&&&&;@%@@@>#&#@'@.++.+",
" ..+. @*#>*&&&;@%@@@)#&#@@@+..+.",
" . ..@>)$*&*&&;@'%@@#&&>@@@@.+..",
"  ..@#>>**)&*&=@@'%@)#&>@@@@+..+",
"+ ..@)#>$)#&&#=@@%-%-)&)@@@@@...",
".++@!##$>)#&*#==@%--'~#>@{@@=@+ ",
" .@#>]>)!>>>*#;=@@%-%=&)@@@@-@++",
"+@>>#>)!#>>>*#)'-@%--%>)%@@@,%@.",
".@>#~))#~~>$>#)%@@@%-%%~%@%@@%@.",
"@)>>)~~!;$)>>!)'@@@'%'=)-@@-@@;@",
"@##;)$>~;>)>#>~'@@@%'''=%@@%-@@@",
"@))))>)%>>)#!>='@@@%@@@-@@@@%-@@",
"@)=)~>%~));#>#-@@@'%-@@@@@@@%-@@",
"@;))!~-=,=;>#>%@@@@%%-@@@@@@@=@@",
"@=>)#%^*'')#!)=@@@@%%=@@@@@@@;%@",
"@>>$~]]--@%>>;=-@@@-%%=@@@@@@=%@",
"@)))~^*-@@'%))%-@@@@%%=-@@@@@@@+",
"@;~)!*--@@@@%%%-@@@@%%%%-@@@@@.+",
"@>>$$*-@@@@@@@%%%%@--%-%=@@'@@..",
"@>>~*-@@@@@@@@@=--{%%-%=%%-@@@  ",
".@~>=-@@@{@@@@@=~=--%%%%%---@   ",
" @>~-@@@@@@@@@@'=-%@@@@@@@@@+   ",
"  @%@@@@@@@@@@@@%@@@..+.+..+.   ",
"   @@@@@@@@@@@@@@@........+. +  "};
