/* XPM */
static char *result[] = {
/* columns rows colors chars-per-pixel */
"16 16 13 1 ",
"  c #151515",
". c #0D2030",
"X c #823C3D",
"o c #E03C28",
"O c #AE6C37",
"+ c #DA655E",
"@ c #20B562",
"# c #6A31CA",
"$ c #A675FE",
"% c #C59782",
"& c #F5B784",
"* c #FFE9C5",
"= c None",
/* pixels */
"================",
"================",
"======    ======",
"===== %%%% =====",
"==== O%%%%O ====",
"==== OO%%OO ====",
"==== O+&&+O ====",
"===  O.**.O  ===",
"== $oX****Xo$ ==",
"= $$XoX&&XoX$$ =",
" #$##oooooX##$# ",
" $$ ooX##$$# $$ ",
" ** #o#$$$$# ** ",
"=== $$$$$$$$ ===",
"=== @@   @@ ====",
"==  @@   @@  ==="
};
